<!DOCTYPE svg PUBLIC "-//W3C//DTD SVG 1.1//EN" "http://www.w3.org/Graphics/SVG/1.1/DTD/svg11.dtd">

<!-- Uploaded to: SVG Repo, www.svgrepo.com, Transformed by: SVG Repo Mixer Tools -->
<svg width="100px" height="120px" viewBox="-5.08 -5.08 60.96 60.96" xmlns="http://www.w3.org/2000/svg" fill="#ffffff" stroke="#ffffff" transform="matrix(1, 0, 0, 1, 0, 0)">

<g id="SVGRepo_bgCarrier" stroke-width="0">

<path transform="translate(-5.08, -5.08), scale(3.8100000000000005)" fill="#FFD700" d="M9.166.33a2.25 2.25 0 00-2.332 0l-5.25 3.182A2.25 2.25 0 00.5 5.436v5.128a2.25 2.25 0 001.084 1.924l5.25 3.182a2.25 2.25 0 002.332 0l5.25-3.182a2.25 2.25 0 001.084-1.924V5.436a2.25 2.25 0 00-1.084-1.924L9.166.33z" strokewidth="0"/>

</g>

<g id="SVGRepo_tracerCarrier" stroke-linecap="round" stroke-linejoin="round"/>

<g id="SVGRepo_iconCarrier">

<path d="M19.494 7.144a19.226 19.226 0 0 0-12.35 12.35m36.512 0A19.224 19.224 0 0 0 31.307 7.146M7.146 31.306a19.224 19.224 0 0 0 12.348 12.35m11.813-.002a19.222 19.222 0 0 0 12.347-12.347M25.4 5.82c5.41 17.6 1.986 14.176 19.58 19.58-17.594 5.41-14.17 1.986-19.58 19.58-5.404-17.594-1.98-14.17-19.58-19.58 17.6-5.404 14.176-1.98 19.58-19.58Z" style="fill:none;stroke:#000000;stroke-width:3.175;stroke-linecap:round;stroke-linejoin:round;stroke-miterlimit:4;stroke-dasharray:none;stroke-opacity:1"/>

</g>

</svg>